<?xml version="1.0" standalone="no"?>
<!DOCTYPE svg PUBLIC "-//W3C//DTD SVG 20010904//EN"
 "http://www.w3.org/TR/2001/REC-SVG-20010904/DTD/svg10.dtd">
<svg version="1.0" xmlns="http://www.w3.org/2000/svg"
 width="260.000000pt" height="260.000000pt" viewBox="0 0 260.000000 260.000000"
 preserveAspectRatio="xMidYMid meet">
<metadata>
Created by potrace 1.11, written by Peter Selinger 2001-2013
</metadata>
<g transform="translate(0.000000,260.000000) scale(0.100000,-0.100000)"
fill="#000000" stroke="none">
<path d="M1087 2594 c-4 -4 -60 -11 -125 -15 -64 -5 -142 -13 -172 -18 -30 -5
-93 -14 -140 -20 -88 -12 -118 -18 -210 -46 -56 -16 -90 -39 -90 -60 0 -7 -9
-20 -21 -31 -11 -10 -29 -37 -40 -59 -11 -22 -28 -53 -37 -70 -10 -16 -29 -57
-42 -90 -13 -33 -26 -64 -30 -70 -3 -5 -13 -30 -20 -55 -7 -25 -16 -49 -20
-55 -4 -5 -13 -30 -20 -55 -7 -25 -19 -52 -26 -60 -6 -8 -14 -28 -17 -45 -3
-16 -11 -50 -17 -75 -71 -276 -72 -678 -1 -955 6 -22 13 -53 17 -70 4 -16 12
-37 19 -45 6 -8 18 -35 25 -60 7 -25 16 -49 20 -55 3 -5 12 -28 19 -50 8 -22
31 -78 52 -123 22 -46 39 -86 39 -89 0 -2 11 -19 25 -37 14 -18 25 -37 25 -42
0 -5 12 -20 25 -33 14 -13 25 -29 25 -36 0 -26 76 -64 127 -65 12 0 25 -4 28
-10 3 -5 17 -10 31 -10 13 0 32 -4 42 -9 9 -6 58 -15 107 -22 50 -6 115 -15
145 -20 254 -42 687 -42 940 0 30 5 96 14 145 20 50 7 98 16 107 22 10 5 29 9
42 9 14 0 28 5 31 10 3 6 16 10 28 10 52 1 127 39 127 66 0 8 4 14 10 14 15 0
86 123 140 245 38 84 42 93 70 170 12 33 28 74 36 90 15 33 39 121 55 200 51
257 42 633 -21 885 -6 25 -14 59 -17 75 -3 17 -12 34 -19 38 -8 4 -14 17 -14
28 0 10 -4 27 -10 37 -5 9 -19 46 -31 82 -12 36 -35 93 -50 128 -16 34 -29 69
-29 77 0 8 -4 15 -10 15 -5 0 -10 7 -10 16 0 8 -11 30 -25 48 -14 18 -25 38
-25 44 0 6 -10 23 -23 39 -13 15 -26 35 -29 43 -7 18 -37 34 -93 48 -22 6 -58
15 -80 21 -22 6 -78 16 -125 22 -47 6 -110 15 -140 21 -147 24 -705 49 -723
32z m211 -66 c7 -7 12 -27 12 -45 0 -46 13 -41 29 12 l13 45 49 0 49 0 0 -77
c0 -92 -8 -108 -45 -99 -25 6 -27 10 -22 54 2 26 2 39 0 30 -2 -9 -11 -22 -19
-28 -8 -7 -14 -20 -14 -30 0 -16 -18 -30 -40 -30 -10 0 -40 57 -40 77 0 7 -4
13 -10 13 -5 0 -10 -21 -10 -46 0 -44 -1 -45 -27 -42 l-28 3 4 80 c1 44 5 83
8 88 7 12 78 8 91 -5z m311 -13 c2 -11 -2 -50 -9 -87 l-13 -68 -35 0 -35 0 6
43 c4 23 9 64 13 90 7 47 8 48 38 45 21 -2 32 -9 35 -23z m-510 -11 c57 -73
-3 -164 -109 -164 -74 0 -109 31 -110 96 0 32 6 48 26 68 24 23 34 26 100 26
66 0 74 -2 93 -26z m712 16 c10 -6 19 -20 19 -31 0 -17 -4 -19 -35 -13 -43 8
-44 -3 -5 -41 54 -51 31 -95 -49 -95 -35 0 -53 5 -65 19 -25 28 -11 44 30 36
38 -7 43 0 16 24 -11 9 -24 27 -31 39 -26 50 60 94 120 62z m-1014 -22 c-34
-93 -34 -85 7 -123 42 -38 40 -55 -7 -55 -24 0 -39 8 -59 32 l-27 33 -1 -40
c0 -36 -4 -42 -30 -52 -28 -11 -30 -10 -36 15 -3 15 -9 43 -14 62 -20 78 -19
91 8 101 36 14 52 4 52 -31 0 -16 5 -30 10 -30 6 0 10 6 10 14 0 23 29 70 47
78 29 11 46 9 40 -4z m1179 -8 c16 0 14 -15 -14 -105 -17 -59 -33 -74 -68 -67
-18 3 -24 9 -20 21 2 9 13 45 23 81 19 68 29 83 51 75 8 -3 20 -5 28 -5z
m-1309 -633 c2 -37 18 -82 33 -97 3 -3 17 -21 32 -41 14 -19 48 -46 75 -59 26
-13 56 -27 65 -32 10 -4 27 -8 37 -8 11 0 23 -4 26 -10 3 -5 16 -10 28 -10 13
0 40 -19 66 -46 43 -44 43 -46 24 -59 -19 -13 -21 -26 -22 -129 -1 -74 3 -117
10 -122 6 -3 43 -7 83 -8 l71 -1 3 -38 c4 -45 25 -73 70 -92 32 -14 32 -14 32
-86 0 -64 -2 -73 -25 -91 -26 -20 -33 -38 -15 -38 6 0 10 7 10 15 0 9 9 15 23
15 13 0 29 6 36 13 11 10 14 9 18 0 8 -23 35 -15 28 7 -5 17 -2 20 21 20 19 0
37 11 60 37 29 33 34 35 50 22 16 -13 17 -12 11 13 -6 21 -1 34 21 60 16 18
32 50 36 70 4 24 13 39 26 43 55 18 -8 35 -127 35 -66 0 -73 2 -73 20 0 17 7
20 40 20 38 0 52 12 30 25 -16 10 8 35 31 35 13 0 19 7 19 23 0 56 -88 84
-142 46 -34 -25 -36 -66 -3 -62 11 2 29 -4 39 -12 16 -12 17 -18 8 -27 -10
-10 -15 -10 -20 -1 -4 6 -28 13 -52 15 l-45 3 -3 73 c-2 41 2 79 7 86 6 7 9
15 7 17 -3 2 -41 4 -85 3 -45 -2 -81 2 -81 7 0 5 9 9 20 9 11 0 20 7 20 15 0
8 9 19 21 25 19 11 19 13 5 29 -16 18 -6 48 13 37 6 -4 20 -2 31 4 18 9 25 8
38 -8 30 -34 70 -54 92 -47 19 6 21 4 15 -15 -6 -19 -4 -21 14 -15 15 4 19 3
16 -7 -8 -20 -62 -40 -86 -33 -15 5 -19 4 -15 -4 8 -12 162 -16 190 -5 9 3 16
12 16 19 0 16 78 85 97 85 7 0 21 4 31 9 9 5 37 15 62 22 108 33 192 124 204
223 7 51 9 55 27 46 11 -6 19 -21 19 -35 0 -14 5 -25 10 -25 6 0 10 -18 10
-39 0 -22 5 -43 10 -46 6 -3 10 -19 10 -35 0 -16 4 -31 9 -34 5 -3 8 -39 7
-80 0 -41 2 -70 5 -64 4 7 9 7 13 0 3 -6 2 -13 -4 -17 -5 -3 -10 -21 -10 -39
0 -18 -3 -36 -7 -40 -6 -6 -11 -28 -15 -68 -1 -10 -6 -18 -10 -18 -4 0 -8 -8
-8 -18 0 -10 -7 -28 -16 -40 -14 -20 -14 -22 0 -22 9 0 16 5 16 10 0 6 52 10
135 10 l135 0 0 -41 c0 -22 -5 -73 -10 -112 -6 -40 -15 -106 -21 -147 -6 -41
-14 -88 -19 -105 -5 -16 -14 -50 -20 -75 -20 -75 -43 -138 -61 -170 -5 -8 -16
-31 -24 -50 -9 -19 -36 -76 -61 -126 -48 -97 -50 -99 -149 -119 -16 -3 -50
-10 -75 -15 -313 -66 -750 -66 -1060 -1 -25 6 -58 13 -75 16 -98 20 -103 23
-144 109 -125 261 -120 248 -162 406 -25 95 -63 413 -50 425 2 3 62 5 132 5
l127 0 14 -30 c8 -18 20 -30 32 -30 18 0 18 1 3 18 -10 10 -17 23 -17 29 0 6
-7 16 -15 23 -8 7 -15 21 -15 31 0 11 -4 19 -8 19 -7 0 -11 20 -13 68 -1 12
-5 22 -10 22 -5 0 -8 12 -7 28 1 15 -2 38 -6 51 -5 13 -4 21 0 18 5 -3 10 25
11 61 3 84 13 141 24 148 5 3 9 23 9 45 0 21 5 39 10 39 6 0 10 8 10 17 0 19
30 56 39 48 3 -4 7 -25 8 -48z m696 -57 c-3 -11 2 -31 11 -45 9 -13 16 -35 16
-49 0 -13 7 -32 16 -40 23 -24 7 -40 -21 -22 -16 11 -39 14 -68 11 -27 -2 -54
2 -71 11 -16 7 -50 14 -77 14 -27 0 -49 5 -49 10 0 6 16 10 35 10 26 0 35 4
35 16 0 15 -8 16 -61 10 -46 -4 -60 -3 -57 7 3 6 19 16 36 22 20 6 32 16 32
26 0 25 18 33 36 18 11 -9 17 -10 23 -1 3 6 40 13 81 15 41 1 78 4 82 5 3 1 4
-7 1 -18z m-1120 -82 c18 -12 35 -27 39 -33 29 -41 -21 -105 -81 -105 -52 1
-73 21 -75 71 -1 34 4 45 29 65 37 30 49 30 88 2z m2207 -8 c28 -26 32 -35 27
-65 -8 -47 -28 -65 -74 -65 -89 1 -122 88 -50 137 43 29 59 28 97 -7z m-1086
-85 c20 -9 34 -20 31 -25 -3 -5 -15 -6 -28 0 -12 4 -30 11 -40 14 -10 3 -15
10 -12 16 8 13 6 13 49 -5z m-230 -281 c9 -23 7 -44 -3 -44 -5 0 -11 8 -15 18
-3 9 -9 23 -12 30 -3 6 1 12 9 12 8 0 18 -7 21 -16z m176 -88 c0 -8 9 -18 21
-21 15 -5 17 -10 9 -20 -6 -7 -8 -20 -4 -29 7 -19 -7 -21 -24 -4 -9 9 -15 9
-24 0 -19 -19 -30 -14 -23 8 4 12 1 27 -5 35 -10 12 -9 15 9 15 12 0 21 6 21
15 0 8 5 15 10 15 6 0 10 -6 10 -14z m208 -108 c2 -24 -1 -38 -9 -38 -7 0 -9
8 -6 21 9 34 -2 50 -29 43 -15 -4 -24 -2 -24 6 0 7 13 10 33 8 29 -3 32 -6 35
-40z m-78 12 c0 -5 -4 -10 -10 -10 -5 0 -10 -7 -10 -15 0 -8 -9 -19 -20 -25
-26 -14 -25 -5 3 30 23 30 37 37 37 20z m-73 -87 c-11 -58 27 -72 75 -26 15
15 28 22 28 16 0 -16 -59 -63 -79 -63 -9 0 -22 5 -29 12 -13 13 -17 70 -5 81
12 13 15 7 10 -20z m128 17 c-3 -5 -11 -10 -16 -10 -6 0 -7 5 -4 10 3 6 11 10
16 10 6 0 7 -4 4 -10z m-1209 -125 c16 -62 11 -80 -27 -96 -26 -10 -35 -10
-58 4 -15 9 -27 26 -29 41 -3 22 -9 25 -45 28 -37 3 -42 6 -45 31 -3 26 -1 27
40 28 24 1 54 5 68 9 14 5 38 8 54 7 26 -2 30 -7 42 -52z m2126 -1 c67 -8 104
-29 87 -50 -14 -17 -51 -18 -67 -2 -6 6 -15 8 -19 4 -4 -4 -1 -11 8 -16 36
-21 62 -47 55 -58 -4 -7 -25 -12 -47 -12 -21 0 -39 -4 -39 -10 0 -5 13 -10 29
-10 38 0 55 -20 38 -45 -11 -14 -17 -15 -35 -6 -12 6 -31 16 -42 21 -11 6 -33
10 -49 10 -38 0 -56 22 -41 49 9 17 20 21 60 21 59 0 64 11 15 30 -49 19 -58
32 -45 65 7 18 15 25 25 21 8 -3 38 -8 67 -12z m-2073 -192 c8 -26 18 -52 23
-58 5 -7 3 -16 -6 -23 -20 -17 -56 3 -56 30 0 11 -7 22 -15 26 -21 7 -32 -4
-17 -19 22 -22 14 -48 -13 -48 -15 0 -25 6 -25 14 0 17 -28 41 -37 32 -3 -3
-1 -17 6 -30 8 -13 10 -29 7 -35 -13 -20 -36 -12 -47 17 -7 15 -16 37 -21 48
-17 36 -6 58 32 66 88 18 121 26 126 31 14 13 31 -7 43 -51z m1955 -51 c3 -5
26 -12 51 -15 55 -9 80 -38 69 -82 -8 -35 -42 -74 -63 -74 -19 0 -88 24 -97
33 -4 4 -16 7 -26 7 -13 0 -18 7 -18 25 0 27 16 32 50 15 11 -5 29 -14 40 -20
32 -16 70 -12 70 6 0 18 -27 43 -46 44 -6 0 -27 7 -47 15 -28 11 -34 19 -30
35 5 20 37 28 47 11z m-1890 -133 c7 -20 5 -30 -7 -42 -8 -9 -20 -16 -25 -16
-5 0 -16 -7 -23 -17 -13 -15 -10 -16 33 -10 44 6 48 5 69 -24 26 -38 25 -39
-86 -74 -74 -23 -81 -24 -92 -8 -22 29 -15 43 21 43 57 0 51 19 -6 22 -42 2
-54 7 -56 21 -4 21 24 46 51 47 9 0 17 5 17 10 0 14 -53 13 -68 -2 -9 -9 -15
-8 -27 8 -8 10 -13 24 -11 29 1 6 37 15 79 21 42 5 80 13 84 17 14 14 38 2 47
-25z m1820 -103 c27 -14 58 -25 68 -25 25 0 34 -28 16 -46 -13 -14 -19 -13
-53 6 -51 29 -56 18 -10 -23 22 -20 35 -39 31 -45 -9 -16 -79 -15 -94 0 -7 7
-12 9 -12 4 0 -11 22 -31 43 -39 18 -7 24 -42 8 -51 -5 -3 -19 2 -32 12 -13 9
-45 28 -71 41 -52 26 -53 27 -38 66 9 24 13 25 62 20 l53 -6 -34 30 c-33 29
-34 30 -17 55 20 32 20 32 80 1z m-1698 -132 c7 -10 14 -21 14 -24 0 -4 -26
-17 -57 -29 -32 -12 -71 -29 -87 -37 -27 -15 -30 -15 -43 3 -7 10 -12 23 -10
29 5 15 130 73 161 75 5 0 15 -8 22 -17z m90 -44 c7 -11 -13 -87 -28 -103 -11
-14 11 -36 37 -36 29 0 38 -10 24 -27 -14 -16 -43 -16 -91 0 -51 18 -53 21
-34 58 9 18 16 40 16 50 0 10 5 21 10 24 6 3 10 15 10 26 0 14 7 19 24 19 14
0 28 -5 32 -11z m1406 -49 c4 -19 10 -47 14 -63 7 -32 -5 -50 -49 -72 -59 -30
-110 -10 -121 47 -4 18 -9 45 -12 59 -4 19 -1 28 11 33 23 8 45 -11 45 -38 0
-22 26 -66 38 -66 4 0 13 4 21 9 12 8 12 16 1 55 -15 55 -8 79 22 74 17 -2 25
-12 30 -38z m-1207 0 c25 -10 26 -12 13 -33 -12 -19 -21 -45 -44 -125 -5 -19
-48 -11 -52 10 -4 23 37 158 48 158 5 0 21 -5 35 -10z m165 -33 c0 -7 -5 -18
-11 -24 -7 -7 -2 -14 21 -21 37 -14 59 -6 70 23 7 18 14 21 35 17 22 -4 25 -9
20 -26 -3 -11 -8 -37 -11 -56 -12 -81 -12 -81 -47 -78 -23 2 -31 7 -28 18 10
40 6 45 -36 48 -39 3 -42 1 -48 -27 -6 -26 -11 -31 -37 -31 -28 0 -30 2 -24
28 3 15 9 43 12 62 13 81 12 80 49 80 22 0 35 -5 35 -13z m687 -91 l3 -76 -44
0 c-48 0 -70 14 -89 59 -11 25 -11 25 -15 -16 -2 -31 -8 -44 -22 -48 -33 -11
-40 4 -40 86 l0 79 38 0 c33 0 40 -6 67 -45 17 -25 33 -45 38 -45 4 0 7 20 7
44 0 34 4 45 18 49 28 6 34 -8 39 -87z m-339 71 c13 -16 42 -97 42 -119 0 -10
5 -18 10 -18 6 0 10 -4 10 -10 0 -5 -13 -10 -30 -10 -20 0 -35 8 -46 25 -21
32 -44 32 -74 0 -22 -23 -59 -33 -72 -19 -8 7 27 78 46 94 9 7 16 17 16 23 0
37 74 63 98 34z"/>
<path d="M958 2476 c-10 -7 -18 -25 -18 -40 0 -54 112 -58 118 -4 5 46 -60 75
-100 44z"/>
<path d="M620 1791 c0 -6 5 -13 10 -16 6 -3 10 1 10 9 0 9 -4 16 -10 16 -5 0
-10 -4 -10 -9z"/>
<path d="M1960 1780 c0 -5 5 -10 10 -10 6 0 10 5 10 10 0 6 -4 10 -10 10 -5 0
-10 -4 -10 -10z"/>
<path d="M650 1746 c0 -9 5 -16 10 -16 6 0 10 4 10 9 0 6 -4 13 -10 16 -5 3
-10 -1 -10 -9z"/>
<path d="M1934 1749 c-3 -6 -1 -16 5 -22 8 -8 11 -5 11 11 0 24 -5 28 -16 11z"/>
<path d="M600 1731 c0 -6 5 -13 10 -16 6 -3 10 1 10 9 0 9 -4 16 -10 16 -5 0
-10 -4 -10 -9z"/>
<path d="M1980 1725 c0 -8 5 -15 10 -15 6 0 10 7 10 15 0 8 -4 15 -10 15 -5 0
-10 -7 -10 -15z"/>
<path d="M670 1710 c0 -5 5 -10 10 -10 6 0 10 5 10 10 0 6 -4 10 -10 10 -5 0
-10 -4 -10 -10z"/>
<path d="M1910 1710 c0 -5 5 -10 10 -10 6 0 10 5 10 10 0 6 -4 10 -10 10 -5 0
-10 -4 -10 -10z"/>
<path d="M620 1691 c0 -6 5 -13 10 -16 6 -3 10 1 10 9 0 9 -4 16 -10 16 -5 0
-10 -4 -10 -9z"/>
<path d="M1960 1685 c0 -8 5 -15 10 -15 6 0 10 7 10 15 0 8 -4 15 -10 15 -5 0
-10 -7 -10 -15z"/>
<path d="M645 1650 c3 -5 10 -10 16 -10 5 0 9 5 9 10 0 6 -7 10 -16 10 -8 0
-12 -4 -9 -10z"/>
<path d="M1910 1635 c-30 -32 -14 -32 25 0 20 17 25 25 14 25 -8 0 -26 -11
-39 -25z"/>
<path d="M680 1631 c0 -10 19 -25 25 -20 1 2 -3 10 -11 17 -8 7 -14 8 -14 3z"/>
<path d="M784 1615 c-4 -8 -12 -15 -20 -15 -19 0 -18 -26 2 -34 24 -9 26 -8
19 13 -3 12 0 21 10 25 8 3 15 10 15 16 0 15 -20 12 -26 -5z"/>
<path d="M1796 1622 c-3 -6 -1 -14 5 -17 15 -10 25 3 12 16 -7 7 -13 7 -17 1z"/>
<path d="M715 1590 c3 -5 8 -10 11 -10 2 0 4 5 4 10 0 6 -5 10 -11 10 -5 0 -7
-4 -4 -10z"/>
<path d="M1820 1585 c-7 -9 -11 -18 -8 -20 9 -10 38 7 38 21 0 18 -14 18 -30
-1z"/>
<path d="M1960 1590 c0 -5 -7 -10 -15 -10 -8 0 -15 -4 -15 -10 0 -13 11 -12
33 4 19 15 22 26 7 26 -5 0 -10 -4 -10 -10z"/>
<path d="M650 1570 c0 -5 5 -10 11 -10 5 0 7 5 4 10 -3 6 -8 10 -11 10 -2 0
-4 -4 -4 -10z"/>
<path d="M1250 1554 c0 -10 31 -36 37 -31 3 3 -2 13 -10 22 -16 15 -27 19 -27
9z"/>
<path d="M670 1510 c0 -5 7 -10 16 -10 8 0 12 5 9 10 -3 6 -10 10 -16 10 -5 0
-9 -4 -9 -10z"/>
<path d="M1905 1510 c-3 -5 1 -10 9 -10 9 0 16 5 16 10 0 6 -4 10 -9 10 -6 0
-13 -4 -16 -10z"/>
<path d="M645 1480 c3 -5 8 -10 11 -10 2 0 4 5 4 10 0 6 -5 10 -11 10 -5 0 -7
-4 -4 -10z"/>
<path d="M1940 1479 c0 -5 5 -7 10 -4 6 3 10 8 10 11 0 2 -4 4 -10 4 -5 0 -10
-5 -10 -11z"/>
<path d="M705 1460 c3 -5 13 -10 21 -10 8 0 12 5 9 10 -3 6 -13 10 -21 10 -8
0 -12 -4 -9 -10z"/>
<path d="M763 1440 c0 -16 6 -30 12 -30 6 0 12 14 12 30 0 17 -6 30 -12 30 -6
0 -12 -13 -12 -30z"/>
<path d="M1810 1460 c0 -5 7 -10 15 -10 8 0 15 5 15 10 0 6 -7 10 -15 10 -8 0
-15 -4 -15 -10z"/>
<path d="M1870 1460 c0 -5 4 -10 9 -10 6 0 13 5 16 10 3 6 -1 10 -9 10 -9 0
-16 -4 -16 -10z"/>
<path d="M670 1420 c0 -5 7 -10 16 -10 8 0 12 5 9 10 -3 6 -10 10 -16 10 -5 0
-9 -4 -9 -10z"/>
<path d="M1810 1420 c0 -5 7 -10 15 -10 8 0 15 5 15 10 0 6 -7 10 -15 10 -8 0
-15 -4 -15 -10z"/>
<path d="M1905 1420 c-3 -5 1 -10 9 -10 9 0 16 5 16 10 0 6 -4 10 -9 10 -6 0
-13 -4 -16 -10z"/>
<path d="M676 1393 c-3 -3 -3 -10 0 -14 7 -12 44 -12 44 0 0 10 -36 21 -44 14z"/>
<path d="M1894 1385 c-18 -14 -18 -14 3 -15 23 0 39 15 25 24 -5 3 -18 -1 -28
-9z"/>
<path d="M790 1380 c0 -5 5 -10 10 -10 6 0 10 5 10 10 0 6 -4 10 -10 10 -5 0
-10 -4 -10 -10z"/>
<path d="M1790 1380 c0 -5 5 -10 10 -10 6 0 10 5 10 10 0 6 -4 10 -10 10 -5 0
-10 -4 -10 -10z"/>
<path d="M748 1353 c6 -2 18 -2 25 0 6 3 1 5 -13 5 -14 0 -19 -2 -12 -5z"/>
<path d="M812 1351 c2 -7 7 -12 11 -12 12 1 9 15 -3 20 -7 2 -11 -2 -8 -8z"/>
<path d="M1774 1345 c-10 -25 4 -45 31 -45 15 0 24 4 20 10 -3 6 -15 10 -26
10 -16 0 -19 5 -14 20 7 23 -3 27 -11 5z"/>
<path d="M1838 1353 c7 -3 16 -2 19 1 4 3 -2 6 -13 5 -11 0 -14 -3 -6 -6z"/>
<path d="M1570 1330 c0 -5 5 -10 10 -10 6 0 10 5 10 10 0 6 -4 10 -10 10 -5 0
-10 -4 -10 -10z"/>
<path d="M695 1310 c3 -5 15 -10 26 -10 11 0 17 5 14 10 -3 6 -15 10 -26 10
-11 0 -17 -4 -14 -10z"/>
<path d="M784 1309 c-4 -7 3 -10 22 -7 15 1 29 -2 31 -8 4 -13 -40 -34 -72
-34 -14 0 -25 -4 -25 -10 0 -5 9 -10 19 -10 10 0 21 -7 25 -15 3 -8 16 -15 29
-15 13 0 32 -6 43 -14 18 -14 18 -15 -5 -24 -14 -5 -20 -12 -14 -15 6 -4 21 1
33 11 l22 18 -26 14 c-33 17 -33 25 4 47 38 22 38 29 -2 53 -36 22 -73 26 -84
9z m86 -37 c0 -16 -38 -44 -55 -40 -23 4 -20 22 5 26 11 2 20 8 20 13 0 5 7 9
15 9 8 0 15 -4 15 -8z"/>
<path d="M1865 1310 c-4 -6 5 -10 19 -10 14 0 26 5 26 10 0 6 -9 10 -19 10
-11 0 -23 -4 -26 -10z"/>
<path d="M1733 1299 c-12 -4 -25 -14 -30 -21 -4 -8 -23 -21 -41 -29 -28 -13
-30 -18 -18 -28 11 -10 19 -9 35 1 12 7 21 18 21 25 0 15 16 17 25 3 3 -5 11
-10 18 -10 8 0 8 3 -1 12 -16 16 -15 28 3 28 8 0 15 -4 15 -10 0 -5 9 -10 19
-10 11 0 23 -4 26 -10 3 -5 17 -10 31 -10 14 0 22 4 19 10 -3 6 -14 10 -24 10
-24 0 -70 23 -73 36 -2 8 -11 9 -25 3z"/>
<path d="M906 1245 c-3 -8 -12 -15 -21 -15 -8 0 -15 -4 -15 -10 0 -14 38 -32
44 -21 4 5 0 11 -6 14 -7 2 -10 8 -6 12 4 4 14 2 23 -5 12 -10 18 -10 30 0 13
10 19 10 33 -4 23 -20 42 -21 42 -1 0 14 -25 20 -70 17 -8 0 -19 6 -23 14 -10
18 -23 18 -31 -1z"/>
<path d="M1950 1250 c0 -5 4 -10 9 -10 6 0 13 5 16 10 3 6 -1 10 -9 10 -9 0
-16 -4 -16 -10z"/>
<path d="M1760 1226 c0 -19 -4 -20 -29 -4 -15 9 -22 8 -35 -5 -18 -18 -8 -30
14 -16 23 14 34 11 20 -6 -10 -12 -10 -18 0 -30 14 -17 40 -20 40 -5 0 6 -7
10 -15 10 -36 0 -6 36 35 42 32 4 29 22 -5 26 -17 2 -25 -1 -25 -12z"/>
<path d="M670 1220 c0 -5 5 -10 10 -10 6 0 10 5 10 10 0 6 -4 10 -10 10 -5 0
-10 -4 -10 -10z"/>
<path d="M1150 1185 c0 -8 7 -15 16 -15 14 0 14 3 4 15 -7 8 -14 15 -16 15 -2
0 -4 -7 -4 -15z"/>
<path d="M690 1180 c0 -5 7 -10 15 -10 8 0 15 5 15 10 0 6 -7 10 -15 10 -8 0
-15 -4 -15 -10z"/>
<path d="M1016 1179 c-5 -11 -15 -14 -32 -11 -14 2 -24 0 -24 -7 0 -6 -7 -11
-15 -11 -8 0 -15 -7 -15 -15 0 -8 6 -15 14 -15 8 0 21 -3 30 -6 9 -3 16 -1 16
5 0 6 -7 11 -15 11 -8 0 -15 4 -15 9 0 5 15 9 34 8 25 -1 36 -6 39 -19 3 -10
10 -18 16 -18 16 0 14 28 -3 37 -8 4 -16 17 -18 28 -4 17 -6 18 -12 4z"/>
<path d="M1890 1180 c0 -5 5 -10 10 -10 6 0 10 5 10 10 0 6 -4 10 -10 10 -5 0
-10 -4 -10 -10z"/>
<path d="M1603 1162 c-10 -17 -8 -18 13 -14 13 2 24 11 24 18 0 20 -23 17 -37
-4z"/>
<path d="M896 1154 c-4 -10 -1 -14 6 -12 15 5 23 28 10 28 -5 0 -13 -7 -16
-16z"/>
<path d="M1680 1161 c0 -5 7 -11 14 -14 10 -4 13 -1 9 9 -6 15 -23 19 -23 5z"/>
<path d="M760 1131 c13 -11 29 -17 34 -14 11 8 -22 33 -43 33 -11 0 -9 -6 9
-19z"/>
<path d="M1150 1146 c0 -2 7 -9 15 -16 12 -10 15 -10 15 4 0 9 -7 16 -15 16
-8 0 -15 -2 -15 -4z"/>
<path d="M1640 1140 c0 -5 -7 -10 -15 -10 -8 0 -15 -5 -15 -11 0 -7 9 -9 23
-5 12 3 27 6 34 6 7 0 10 7 7 15 -7 17 -34 21 -34 5z"/>
<path d="M1815 1137 c-10 -8 -14 -17 -9 -20 5 -3 21 3 34 14 29 22 6 28 -25 6z"/>
<path d="M1060 1090 c0 -5 -10 -10 -22 -10 -21 0 -21 0 -2 -21 18 -20 19 -20
23 -3 2 11 8 25 13 32 7 8 7 12 -1 12 -6 0 -11 -4 -11 -10z"/>
<path d="M1210 1090 c0 -5 9 -10 20 -10 11 0 20 5 20 10 0 6 -9 10 -20 10 -11
0 -20 -4 -20 -10z"/>
<path d="M1550 1070 c0 -5 7 -10 15 -10 8 0 15 5 15 10 0 6 -7 10 -15 10 -8 0
-15 -4 -15 -10z"/>
<path d="M1086 1061 c-4 -7 -5 -15 -2 -18 9 -9 19 4 14 18 -4 11 -6 11 -12 0z"/>
<path d="M1245 1059 c-10 -15 3 -25 16 -12 7 7 7 13 1 17 -6 3 -14 1 -17 -5z"/>
<path d="M1007 1020 c14 -15 27 -20 39 -16 22 8 9 22 -31 32 l-30 6 22 -22z"/>
<path d="M1542 981 c2 -45 7 -62 21 -71 17 -10 18 -9 11 12 -4 13 -7 34 -6 48
2 36 -7 70 -18 70 -6 0 -10 -24 -8 -59z"/>
<path d="M1188 1013 c7 -3 16 -2 19 1 4 3 -2 6 -13 5 -11 0 -14 -3 -6 -6z"/>
<path d="M1090 992 c0 -11 22 -32 32 -32 5 0 4 9 -2 20 -11 20 -30 28 -30 12z"/>
<path d="M1150 993 c0 -5 4 -13 9 -18 5 -6 11 -19 13 -29 2 -16 5 -17 15 -5 9
11 7 19 -13 38 -13 13 -24 19 -24 14z"/>
<path d="M1487 993 c-6 -12 20 -56 26 -46 3 5 3 19 0 31 -5 22 -18 29 -26 15z"/>
<path d="M1584 977 c3 -27 41 -73 49 -60 3 5 -2 17 -13 25 -12 11 -17 24 -13
37 4 15 1 21 -10 21 -10 0 -15 -8 -13 -23z"/>
<path d="M1015 960 c-3 -5 -1 -10 4 -10 6 0 11 5 11 10 0 6 -2 10 -4 10 -3 0
-8 -4 -11 -10z"/>
<path d="M1230 939 c0 -5 5 -7 10 -4 6 3 10 8 10 11 0 2 -4 4 -10 4 -5 0 -10
-5 -10 -11z"/>
<path d="M1025 930 c3 -5 10 -10 16 -10 5 0 9 5 9 10 0 6 -7 10 -16 10 -8 0
-12 -4 -9 -10z"/>
<path d="M1206 921 c-4 -7 -5 -15 -2 -18 9 -9 19 4 14 18 -4 11 -6 11 -12 0z"/>
<path d="M1420 916 c0 -9 5 -16 10 -16 6 0 10 4 10 9 0 6 -4 13 -10 16 -5 3
-10 -1 -10 -9z"/>
<path d="M1168 914 c-12 -11 -10 -54 2 -54 6 0 10 -7 10 -17 0 -15 1 -15 18 0
10 10 24 17 30 17 7 0 12 5 12 10 0 6 -7 10 -15 10 -8 0 -15 -4 -15 -10 0 -5
-6 -10 -14 -10 -9 0 -16 12 -18 31 -2 17 -6 27 -10 23z"/>
<path d="M790 869 c0 -5 5 -7 10 -4 6 3 10 8 10 11 0 2 -4 4 -10 4 -5 0 -10
-5 -10 -11z"/>
<path d="M1290 870 c0 -5 5 -10 10 -10 6 0 10 5 10 10 0 6 -4 10 -10 10 -5 0
-10 -4 -10 -10z"/>
<path d="M1360 870 c0 -5 4 -10 9 -10 6 0 13 5 16 10 3 6 -1 10 -9 10 -9 0
-16 -4 -16 -10z"/>
<path d="M1411 864 c-7 -8 -10 -18 -7 -21 7 -7 36 16 36 28 0 13 -13 10 -29
-7z"/>
<path d="M1790 871 c0 -5 6 -11 13 -14 9 -3 9 -9 -1 -26 -12 -21 -12 -21 8
-11 24 13 25 26 6 46 -17 16 -26 18 -26 5z"/>
<path d="M880 850 c0 -5 5 -10 10 -10 6 0 10 5 10 10 0 6 -4 10 -10 10 -5 0
-10 -4 -10 -10z"/>
<path d="M940 850 c0 -5 5 -10 10 -10 6 0 10 5 10 10 0 6 -4 10 -10 10 -5 0
-10 -4 -10 -10z"/>
<path d="M1695 850 c-3 -5 1 -10 9 -10 9 0 16 5 16 10 0 6 -4 10 -9 10 -6 0
-13 -4 -16 -10z"/>
<path d="M1255 840 c-3 -5 -1 -10 4 -10 6 0 11 5 11 10 0 6 -2 10 -4 10 -3 0
-8 -4 -11 -10z"/>
<path d="M1330 840 c0 -5 5 -10 11 -10 5 0 7 5 4 10 -3 6 -8 10 -11 10 -2 0
-4 -4 -4 -10z"/>
<path d="M755 830 c-3 -5 -2 -10 4 -10 5 0 13 5 16 10 3 6 2 10 -4 10 -5 0
-13 -4 -16 -10z"/>
<path d="M845 820 c-3 -6 1 -7 9 -4 18 7 21 14 7 14 -6 0 -13 -4 -16 -10z"/>
<path d="M948 823 c7 -3 16 -2 19 1 4 3 -2 6 -13 5 -11 0 -14 -3 -6 -6z"/>
<path d="M1210 825 c0 -10 43 -65 52 -65 18 0 5 26 -23 48 -16 13 -29 21 -29
17z"/>
<path d="M1356 821 c-4 -7 -5 -15 -2 -18 9 -9 19 4 14 18 -4 11 -6 11 -12 0z"/>
<path d="M1290 810 c0 -5 5 -10 10 -10 6 0 10 5 10 10 0 6 -4 10 -10 10 -5 0
-10 -4 -10 -10z"/>
<path d="M1595 800 c4 -6 11 -8 16 -5 14 9 11 15 -7 15 -8 0 -12 -5 -9 -10z"/>
<path d="M1760 790 c0 -5 5 -10 10 -10 6 0 10 5 10 10 0 6 -4 10 -10 10 -5 0
-10 -4 -10 -10z"/>
<path d="M820 780 c0 -5 5 -10 10 -10 6 0 10 5 10 10 0 6 -4 10 -10 10 -5 0
-10 -4 -10 -10z"/>
<path d="M1310 775 c0 -17 2 -18 24 -9 23 9 20 24 -4 24 -11 0 -20 -7 -20 -15z"/>
<path d="M860 760 c0 -5 7 -10 15 -10 8 0 15 5 15 10 0 6 -7 10 -15 10 -8 0
-15 -4 -15 -10z"/>
<path d="M1710 760 c0 -5 5 -10 10 -10 6 0 10 5 10 10 0 6 -4 10 -10 10 -5 0
-10 -4 -10 -10z"/>
<path d="M1435 740 c4 -6 11 -8 16 -5 14 9 11 15 -7 15 -8 0 -12 -5 -9 -10z"/>
<path d="M1558 733 c7 -3 16 -2 19 1 4 3 -2 6 -13 5 -11 0 -14 -3 -6 -6z"/>
<path d="M1250 648 c0 -4 21 -8 46 -8 26 0 43 4 39 9 -7 12 -85 10 -85 -1z"/>
<path d="M1133 625 c-15 -16 -16 -25 -5 -25 4 0 13 9 20 20 14 23 3 26 -15 5z"/>
<path d="M1375 610 c3 -5 10 -10 16 -10 5 0 9 5 9 10 0 6 -7 10 -16 10 -8 0
-12 -4 -9 -10z"/>
<path d="M206 952 c-2 -4 -1 -14 4 -22 7 -11 12 -12 21 -3 6 6 8 16 5 22 -8
13 -23 14 -30 3z"/>
<path d="M1270 161 c0 -6 5 -13 10 -16 6 -3 10 1 10 9 0 9 -4 16 -10 16 -5 0
-10 -4 -10 -9z"/>
</g>
</svg>
